Coordinates
version=1
nRows=24
nColumns=24
inDegrees=yes

Units are S.I. units (second, meters, Newtons, ...)
Angles are in degrees.

endheader
time	pelvis_tilt	pelvis_list	pelvis_rotation	pelvis_tx	pelvis_ty	pelvis_tz	hip_flexion_r	hip_adduction_r	hip_rotation_r	knee_angle_r	ankle_angle_r	subtalar_angle_r	mtp_angle_r	hip_flexion_l	hip_adduction_l	hip_rotation_l	knee_angle_l	ankle_angle_l	subtalar_angle_l	mtp_angle_l	lumbar_extension	lumbar_bending	lumbar_rotation
      1.15383333	     -1.72457848	      2.39873114	     -2.47603396	      0.18560783	      1.06047715	      0.28197494	     12.28648065	     -6.69925905	     -6.44954449	    -69.86127550	      1.82907734	     -4.53330913	      7.92172760	     16.10920453	      2.52597736	      0.73183041	    -26.98604932	     14.80900993	      1.99460934	      3.79152715	     -7.76788458	     -2.11582490	     -0.45345702
      1.15800000	     -1.72136001	      2.21291856	     -2.56955777	      0.19097085	      1.06197168	      0.28205402	     12.91138276	     -6.44153426	     -6.51008941	    -69.99994740	      2.18358750	     -4.44021941	      7.88384018	     15.53752998	      2.32687027	      0.72260238	    -26.51969161	     14.82866277	      1.96998651	      3.78489006	     -7.79851893	     -1.90749469	     -0.49944227
      1.16216667	     -1.73291579	      2.05589151	     -2.65159821	      0.19637950	      1.06343954	      0.28211895	     13.53693379	     -6.22168107	     -6.59150258	    -70.06810684	      2.56968856	     -4.19447937	      7.83357249	     14.96233780	      2.16513819	      0.73586347	    -26.00882436	     14.83620955	      1.92870757	      3.77504727	     -7.78367363	     -1.73186524	     -0.57250705
      1.16633333	     -1.72949879	      1.88061165	     -2.73160637	      0.20175460	      1.06493060	      0.28220280	     14.13053874	     -5.97163635	     -6.67689576	    -70.05053346	      2.95391652	     -3.92415655	      7.79201128	     14.37134716	      1.98216346	      0.74530011	    -25.49557134	     14.82814689	      1.88636827	      3.76438211	     -7.80041248	     -1.53470144	     -0.63957790
      1.17050000	     -1.73617002	      1.70020938	     -2.81525918	      0.20711135	      1.06637014	      0.28232499	     14.72551953	     -5.70254915	     -6.75451003	    -69.96391907	      3.34034234	     -3.63711930	      7.77642444	     13.79499981	      1.78599763	      0.72459063	    -24.98793767	     14.79968982	      1.85676700	      3.75603258	     -7.82086795	     -1.32960042	     -0.69180573
      1.17466667	     -1.72977505	      1.51831799	     -2.88410940	      0.21247835	      1.06782329	      0.28242119	     15.28446574	     -5.43746629	     -6.85725646	    -69.79740452	      3.73189319	     -3.26382216	      7.76938841	     13.19570369	      1.59535986	      0.72960451	    -24.45942314	     14.77678299	      1.83422625	      3.74775760	     -7.84811000	     -1.12304778	     -0.75420950
      1.17883333	     -1.70827023	      1.34404168	     -2.94992887	      0.21783146	      1.06928748	      0.28252716	     15.81263166	     -5.17843885	     -6.96472121	    -69.55836197	      4.13276961	     -2.84276240	      7.76938561	     12.57404912	      1.41371814	      0.73397391	    -23.91189253	     14.73972948	      1.80024916	      3.73865063	     -7.89183461	     -0.92509835	     -0.82594122
      1.18300000	     -1.67542806	      1.18361995	     -3.00194097	      0.22320440	      1.07074061	      0.28261134	     16.30949374	     -4.94246759	     -7.09565042	    -69.25044385	      4.53186821	     -2.38625382	      7.77379542	     11.93177169	      1.25416192	      0.76139035	    -23.34400561	     14.70524588	      1.74276456	      3.72672486	     -7.93838403	     -0.74441904	     -0.91711194
      1.18716667	     -1.64559090	      1.00665586	     -3.05598587	      0.22854532	      1.07215650	      0.28271906	     16.79536148	     -4.67712367	     -7.22004168	    -68.87059961	      4.91593463	     -1.93284102	      7.78931069	     11.29908193	      1.07112824	      0.76907934	    -22.78603539	     14.65574327	      1.70240140	      3.71580496	     -7.99747533	     -0.53792305	     -0.98812509
      1.19133333	     -1.60484050	      0.82819211	     -3.10303440	      0.23388396	      1.07355579	      0.28282252	     17.25096554	     -4.41053188	     -7.35457707	    -68.42065342	      5.29265432	     -1.47236059	      7.81388963	     10.65407924	      0.88733546	      0.77584774	    -22.22406310	     14.60350824	      1.67009292	      3.70544552	     -8.06993607	     -0.33147961	     -1.06213816
      1.19550000	     -1.56612262	      0.64544644	     -3.14423077	      0.23921211	      1.07489987	      0.28292670	     17.69264233	     -4.13886528	     -7.49809591	    -67.90676888	      5.65845707	     -1.01079185	      7.84627702	     10.01424680	      0.69807524	      0.77985931	    -21.66556978	     14.55274392	      1.64203066	      3.69583443	     -8.14330362	     -0.11967750	     -1.13504416
      1.19966667	     -1.52364337	      0.47571082	     -3.18075722	      0.24453887	      1.07620904	      0.28303179	     18.11564885	     -3.88190171	     -7.64530999	    -67.33391514	      6.01920303	     -0.55472869	      7.88687330	      9.36806148	      0.52424487	      0.78731928	    -21.09681138	     14.49030936	      1.60403696	      3.68585949	     -8.21863922	      0.07993591	     -1.21588283
      1.20383333	     -1.47591350	      0.29952303	     -3.20976626	      0.24985721	      1.07747257	      0.28312754	     18.51434288	     -3.61818232	     -7.80083324	    -66.69636776	      6.36493310	     -0.11198194	      7.93218671	      8.72051475	      0.34377895	      0.79284882	    -20.53441618	     14.43306698	      1.57060024	      3.67692482	     -8.30441567	      0.28675783	     -1.29289612
      1.20800000	     -1.45373452	      0.12299877	     -3.23905312	      0.25517059	      1.07863996	      0.28324895	     18.92603992	     -3.34520468	     -7.94810889	    -65.99919370	      6.69018116	      0.28418481	      7.97342020	      8.10776320	      0.15794338	      0.78373309	    -19.98569820	     14.35771804	      1.54766033	      3.66911735	     -8.36816283	      0.48494121	     -1.35796011
      1.21216667	     -1.38482071	     -0.03045247	     -3.25655385	      0.26048611	      1.07982623	      0.28332507	     19.27141042	     -3.11554547	     -8.11847169	    -65.25323151	      7.01709221	      0.69173383	      8.03294879	      7.43194084	      0.00887118	      0.80991782	    -19.40328072	     14.30813440	      1.49665373	      3.66080805	     -8.47345551	      0.67808010	     -1.45746298
      1.21633333	     -1.36574829	     -0.21808841	     -3.27328131	      0.26579378	      1.08088849	      0.28343224	     19.64763570	     -2.83027269	     -8.27717527	    -64.43070189	      7.30249657	      1.01754716	      8.07398414	      6.83166090	     -0.19010257	      0.79169508	    -18.86861981	     14.23378363	      1.47780199	      3.65435395	     -8.53101647	      0.89294802	     -1.51461365
      1.22050000	     -1.30070816	     -0.35939091	     -3.27881409	      0.27109747	      1.08191738	      0.28349742	     19.96803277	     -2.61739380	     -8.45464504	    -63.58488369	      7.60704191	      1.37136573	      8.14042012	      6.16869312	     -0.32500075	      0.82680433	    -18.29766743	     14.19710786	      1.42575116	      3.64745014	     -8.63797411	      1.07545946	     -1.62652039
      1.22466667	     -1.26566068	     -0.52022947	     -3.28227326	      0.27639379	      1.08286326	      0.28357175	     20.29835644	     -2.37246435	     -8.62380413	    -62.66743758	      7.87279555	      1.65476141	      8.20500146	      5.55040655	     -0.48640857	      0.84046799	    -17.75092237	     14.14212391	      1.37580785	      3.64076952	     -8.71087177	      1.27004438	     -1.71470283
      1.22883333	     -1.26721969	     -0.68626739	     -3.28662957	      0.28170403	      1.08365762	      0.28367663	     20.65255925	     -2.11338573	     -8.78565190	    -61.70035519	      8.12468730	      1.88615388	      8.24979585	      4.98614846	     -0.66241778	      0.82182966	    -17.23993443	     14.08817970	      1.36052663	      3.63560556	     -8.74200844	      1.46526483	     -1.77759988
      1.23300000	     -1.22131529	     -0.81586878	     -3.28400358	      0.28698292	      1.08443762	      0.28374832	     20.94894322	     -1.90908445	     -8.95294976	    -60.70534756	      8.37750206	      2.11347470	      8.32164578	      4.36082940	     -0.78612264	      0.85674509	    -16.69678467	     14.05773249	      1.30442383	      3.63010445	     -8.83612480	      1.63110713	     -1.89458201
      1.23716667	     -1.25923859	     -0.95404491	     -3.29555282	      0.29231171	      1.08501387	      0.28386089	     21.31960929	     -1.67871315	     -9.09905117	    -59.65954880	      8.60352818	      2.25162802	      8.35071064	      3.83942085	     -0.93390255	      0.81503483	    -16.18927068	     14.01774829	      1.31602949	      3.62632719	     -8.80827071	      1.81906936	     -1.93105215
      1.24133333	     -1.20494835	     -1.09908563	     -3.27074812	      0.29757790	      1.08568095	      0.28390795	     21.56164606	     -1.46161645	     -9.27835785	    -58.54465556	      8.80597911	      2.41983971	      8.41529562	      3.22750756	     -1.07442239	      0.85717395	    -15.69262754	     14.01240041	      1.24607624	      3.62164856	     -8.91639799	      1.98845050	     -2.06152290
      1.24550000	     -1.24490525	     -1.23932376	     -3.26663544	      0.30287862	      1.08609992	      0.28401713	     21.89607934	     -1.22910169	     -9.42179592	    -57.39428064	      9.01124548	      2.52221705	      8.45588595	      2.73108232	     -1.22406257	      0.83427979	    -15.22899282	     13.98381154	      1.22813036	      3.61744703	     -8.90384548	      2.15936155	     -2.12474713
      1.24966667	     -1.24883349	     -1.35699475	     -3.25293407	      0.30816216	      1.08647989	      0.28409235	     22.18072124	     -1.03423579	     -9.57187533	    -56.21249323	      9.19020516	      2.60027185	      8.52785463	      2.18990848	     -1.33897790	      0.86522998	    -14.74850286	     13.99109710	      1.18007456	      3.61218321	     -8.93679808	      2.31634356	     -2.25324948
